<svg xmlns="http://www.w3.org/2000/svg" width="1200" height="520" viewBox="0 0 1200 520">
<rect width="100%" height="100%" fill="#f4f1ea"/>
<defs>
  <pattern id="grid" width="40" height="40" patternUnits="userSpaceOnUse">
    <path d="M 40 0 L 0 0 0 40" fill="none" stroke="#e4e0d7" stroke-width="1"/>
  </pattern>
  <style>
    .sans{font-family:Arial,Helvetica,sans-serif}
    .mono{font-family:ui-monospace,SFMono-Regular,Menlo,Consolas,'Liberation Mono',monospace}
  </style>
</defs>
<rect width="1200" height="520" fill="url(#grid)" opacity="0.9"/>
<rect x="28" y="28" width="1144" height="464" fill="none" stroke="#c8c4bb"/>
<line x1="28" y1="92" x2="1172" y2="92" stroke="#c8c4bb"/>
<rect x="28" y="28" width="210" height="64" fill="#d60013"/>
<text x="48" y="67" class="mono" font-size="18" font-weight="700" fill="#fff" letter-spacing="1.8">PFX / PROFILE</text>
<text x="270" y="67" class="mono" font-size="15" fill="#686b70" letter-spacing="1.6">SYSTEM 001</text>
<text x="1144" y="67" text-anchor="end" class="mono" font-size="14" fill="#686b70" letter-spacing="1.4">TÉTOUAN · MOROCCO / 2026</text>
<line x1="62" y1="144" x2="62" y2="392" stroke="#d60013" stroke-width="4"/>
<text x="96" y="222" class="mono" font-size="16" fill="#d60013" letter-spacing="2.8">DESIGNER + DEVELOPER</text>
<text x="92" y="332" class="sans" font-size="108" font-weight="800" fill="#111214" letter-spacing="-4">PFxamd</text>
<text x="96" y="392" class="sans" font-size="24" fill="#111214">Custom websites, digital tools and interactive systems.</text>
<text x="96" y="438" class="mono" font-size="14" fill="#686b70" letter-spacing="1.5">WEB / SYSTEM / TOOL / INTERFACE</text>
<rect x="856" y="128" width="262" height="262" fill="none" stroke="#c8c4bb"/>
<line x1="856" y1="128" x2="1118" y2="390" stroke="#c8c4bb"/>
<line x1="1118" y1="128" x2="856" y2="390" stroke="#c8c4bb"/>
<svg x="875" y="147" width="224" height="224" viewBox="0 0 835 704">
    <g transform="matrix(1,0,0,1,0,-0.496)">
        <g transform="matrix(1,0,0,1,-295.275591,-1534.93015)">
            <g transform="matrix(1,0,0,1,1043.750201,48.596449)">
                <path d="M-216.975,1738.886L86.327,1739.043L-150.237,1907.696L-49.734,2190.334L-331.256,2024.958L-612.126,2190.334L-510.102,1906.576L-748.475,1739.377L-442.949,1739.055L-403.569,1633.881L-420.587,1578.47L-372.24,1578.853L-331.622,1486.83L-289.927,1578.499L-289.899,1578.47L-272.663,1578.47L-216.973,1738.885L-216.975,1738.886Z" style="fill:rgb(255,0,20);"/>
            </g>
        </g>
        <g transform="matrix(1,0,0,1,-295.275591,-1534.93015)">
            <g transform="matrix(1,0,0,1,1043.750201,48.596449)">
                <path d="M11.819,1751.474C36.135,1751.426 36.054,1751.324 39.8,1751.213C47.266,1750.993 30.157,1761.452 18.034,1769.986C3.038,1780.541 -166.916,1900.154 -168.734,1902.887C-170.17,1905.046 -152.566,1953.314 -92.551,2123.474C-82.983,2150.602 -81.807,2150.95 -83.155,2151.971C-85.92,2154.068 -297.14,2027.332 -329.2,2011.228C-332.839,2009.4 -335.679,2011.985 -345.235,2017.558C-520.026,2119.473 -519.723,2119.961 -535.049,2128.6C-566.422,2146.284 -577.48,2153.991 -578.967,2152.389C-580.537,2150.696 -514.796,1971.882 -493.175,1908.275C-490.219,1899.582 -493.907,1899.722 -507.518,1890.417C-563.189,1852.354 -662.914,1780.71 -676.348,1771.059C-696.831,1756.343 -708.828,1750.647 -701.703,1750.994C-687.673,1751.677 -687.775,1751.453 -673.697,1751.646C-628.656,1752.263 -435.625,1751.501 -434.299,1751.457C-429.569,1751.301 -428.287,1746.424 -425.411,1738.927C-416.58,1715.907 -390.488,1643.472 -390.402,1643.193C-388.485,1636.94 -402.332,1603.061 -401.007,1596.515C-399.925,1591.18 -372.791,1596.734 -365.25,1593.426C-361.345,1591.713 -336.923,1532.716 -333.499,1525.659C-331.506,1521.552 -331.287,1527.108 -307.759,1576.581C-300.547,1591.748 -300.842,1594.083 -291.817,1594.09C-283.733,1594.097 -283.523,1595.951 -279.84,1607.037C-271.944,1630.803 -229.967,1750.442 -229.775,1750.63C-227.017,1753.312 -33.415,1751.578 11.819,1751.474Z"/>
            </g>
        </g>
        <g transform="matrix(1,0,0,1,-295.275591,-1534.93015)">
            <g transform="matrix(1,0,0,1,80.768898,-37.982569)">
                <path d="M632.889,1653.798C632.543,1653.046 631.588,1649.202 629.46,1649.86C628.121,1650.273 617.658,1681.575 617.743,1681.967C618.131,1683.769 618.65,1684.883 640.685,1684.063C644.226,1683.931 643.255,1679.393 632.889,1653.798Z" style="fill:rgb(255,0,20);"/>
            </g>
        </g>
        <g transform="matrix(1,0,0,1,-295.275591,-1534.93015)">
            <g transform="matrix(1,0,0,1,1043.750201,48.596449)">
                <path d="M-375.899,1688.357C-357.477,1688.131 -349.199,1690.835 -351.755,1683.174C-354.496,1674.961 -355.013,1675.159 -369.85,1630.423C-374.247,1617.168 -377.853,1610.919 -372.424,1610.432C-370.395,1610.25 -311.888,1609.426 -308.102,1611.724C-306.134,1612.918 -306.991,1613.485 -284.41,1674.726C-266.021,1724.596 -227.496,1832.96 -175.342,1971.618L-138.766,2069.574C-138.763,2069.584 -135.187,2076.639 -137.661,2076.638C-137.999,2076.638 -173.939,2055.572 -198.102,2042.228C-201.798,2040.186 -241.172,2018.44 -243.736,2015.695C-248.673,2010.416 -262.232,1949.598 -268.504,1948.34C-270.247,1947.991 -391.461,1947.403 -394.499,1948.48C-400.439,1950.586 -413.974,2011.288 -419.669,2016.497C-421.331,2018.017 -489.767,2058.984 -512.887,2073.701C-513.168,2073.88 -518.237,2077.106 -517.017,2073.131C-516.247,2070.618 -387.807,1702.831 -384.738,1694.926C-381.962,1687.777 -380.572,1688.633 -375.899,1688.357ZM-295.315,1883.257C-288.53,1883.027 -288.49,1883.296 -287.156,1882.728C-286.975,1882.651 -285.907,1882.195 -286.228,1880.447C-286.391,1879.557 -330.313,1737.481 -330.933,1735.9C-333.092,1730.399 -337.604,1748.258 -338.368,1750.83C-341.429,1761.11 -376.055,1877.409 -376.511,1879.374C-377.984,1885.708 -372.951,1883.486 -295.315,1883.257Z" style="fill:rgb(253,253,253);"/>
            </g>
        </g>
        <g transform="matrix(1,0,0,1,-295.275591,-1534.93015)">
            <g transform="matrix(1,0,0,1,1043.750201,48.596449)">
                <path d="M-443.75,1782.247C-447.22,1791.626 -447.404,1798.839 -455.316,1798.871C-553.295,1799.251 -556.683,1797.624 -555.45,1800.914C-553.817,1805.267 -469.674,1858.985 -471.377,1865.358C-472.819,1870.755 -493.942,1855.176 -578.777,1807.427C-583.773,1804.616 -638.535,1773.793 -640.885,1771.686C-646.402,1766.739 -637.104,1769.409 -513.708,1769.457C-442.099,1769.682 -439.788,1768.713 -440.084,1771.799C-440.243,1773.465 -440.44,1773.369 -443.75,1782.247Z" style="fill:rgb(250,0,4);"/>
            </g>
        </g>
        <g transform="matrix(1,0,0,1,-295.275591,-1534.93015)">
            <g transform="matrix(1,0,0,1,1043.750201,48.596449)">
                <path d="M-220.409,1783.448C-220.502,1783.19 -226.014,1772.056 -223.232,1770.121C-220.34,1768.11 -47.591,1770.217 -23.272,1768.86C-12.531,1768.261 -46.09,1784.504 -64.933,1795.714C-77.891,1803.423 -109.199,1820.796 -185.849,1864.693C-194.657,1869.737 -193.56,1863.693 -193.241,1863.182C-192.243,1861.583 -121.87,1809.857 -108.823,1801.71C-102.558,1797.798 -111.228,1799.616 -135.328,1798.717C-211.313,1797.308 -214.345,1800.825 -216.803,1793.89C-217.099,1793.057 -217.071,1793.116 -220.409,1783.448Z" style="fill:rgb(249,0,2);"/>
            </g>
        </g>
    </g>
</svg>
<text x="1118" y="432" text-anchor="end" class="mono" font-size="13" fill="#686b70" letter-spacing="1.2">PFX / TÉTOUAN</text>
<circle cx="1142" cy="455" r="5" fill="#d60013"/>
<text x="1128" y="460" text-anchor="end" class="mono" font-size="13" fill="#686b70" letter-spacing="1.2">ONLINE</text>
</svg>